<svg id="Layer_1" data-name="Layer 1" xmlns="http://www.w3.org/2000/svg" viewBox="0 0 538.02 126.34">
    <defs>
        <style>.cls-1{fill:#3b8beb;}</style>
    </defs>
    <path
        d="M235.31,286a18,18,0,0,1,7.35,7.05,22.38,22.38,0,0,1,0,20.94,17.93,17.93,0,0,1-7.37,7.09,23.46,23.46,0,0,1-11.06,2.51h-15V283.44h15A23.26,23.26,0,0,1,235.31,286Zm-3.08,26.11c2.06-2,3.08-4.88,3.08-8.57s-1-6.57-3.08-8.63-4.93-3.08-8.63-3.08H219V315.1h4.63C227.3,315.1,230.17,314.09,232.23,312.07Z"
        transform="translate(-126.99 -242.83)"/>
    <path d="M286.62,323.55h-9.77l-16.34-24.74v24.74h-9.77V283.44h9.77l16.34,24.86V283.44h9.77Z"
          transform="translate(-126.99 -242.83)"/>
    <path
        d="M300.33,322.52a12.88,12.88,0,0,1-5.57-4.22,11.61,11.61,0,0,1-2.2-6.75H303a5,5,0,0,0,1.54,3.4,5,5,0,0,0,3.43,1.17,5.35,5.35,0,0,0,3.43-1,3.33,3.33,0,0,0,1.26-2.77,3.29,3.29,0,0,0-1-2.45,8.11,8.11,0,0,0-2.46-1.6,38.33,38.33,0,0,0-4.14-1.43,45.36,45.36,0,0,1-6.35-2.4,11.76,11.76,0,0,1-4.22-3.54,9.88,9.88,0,0,1-1.77-6.12,10.53,10.53,0,0,1,4.05-8.77q4.06-3.17,10.57-3.17T318,286a11.38,11.38,0,0,1,4.34,8.83H311.76a4.16,4.16,0,0,0-1.43-3.06A5.05,5.05,0,0,0,307,290.7a4.26,4.26,0,0,0-2.86.94,3.43,3.43,0,0,0-1.08,2.72,3.35,3.35,0,0,0,1.83,3,29.32,29.32,0,0,0,5.71,2.35,51.89,51.89,0,0,1,6.31,2.51,12,12,0,0,1,4.2,3.49,9.31,9.31,0,0,1,1.77,5.88,11.57,11.57,0,0,1-1.74,6.23A12.22,12.22,0,0,1,316,322.3a17.37,17.37,0,0,1-7.82,1.65A20.48,20.48,0,0,1,300.33,322.52Z"
        transform="translate(-126.99 -242.83)"/>
    <path
        d="M373.86,293.19a10.93,10.93,0,0,1,4.52,4.54A15.2,15.2,0,0,1,380,305.1v18.45h-5.14V305.84q0-4.68-2.31-7.17a8.14,8.14,0,0,0-6.26-2.49,8.39,8.39,0,0,0-6.46,2.6c-1.6,1.74-2.4,4.24-2.4,7.52v17.25h-5.14V305.84q0-4.68-2.31-7.17a8.13,8.13,0,0,0-6.26-2.49,8.36,8.36,0,0,0-6.45,2.6c-1.6,1.74-2.4,4.24-2.4,7.52v17.25h-5.2V292.24h5.2v4.52A10.24,10.24,0,0,1,339,293a12.5,12.5,0,0,1,5.74-1.32,13.55,13.55,0,0,1,7,1.77,10.82,10.82,0,0,1,4.51,5.2,10.29,10.29,0,0,1,4.35-5.14,12.77,12.77,0,0,1,6.74-1.83A13.66,13.66,0,0,1,373.86,293.19Z"
        transform="translate(-126.99 -242.83)"/>
    <path
        d="M388.55,299.36a14,14,0,0,1,5.34-5.63,14.67,14.67,0,0,1,7.57-2,13.9,13.9,0,0,1,7.14,1.77,11.78,11.78,0,0,1,4.51,4.46v-5.72h5.26v31.31h-5.26v-5.83a12.25,12.25,0,0,1-4.6,4.55,13.74,13.74,0,0,1-7.11,1.8,14.16,14.16,0,0,1-12.85-7.83,17.92,17.92,0,0,1-1.95-8.46A17.48,17.48,0,0,1,388.55,299.36Zm23.13,2.31a10.11,10.11,0,0,0-3.85-4,10.95,10.95,0,0,0-10.66,0,10.06,10.06,0,0,0-3.83,4,12.78,12.78,0,0,0-1.42,6.17,13.06,13.06,0,0,0,1.42,6.26,10.22,10.22,0,0,0,3.83,4.06,10.39,10.39,0,0,0,5.32,1.4,10.54,10.54,0,0,0,5.34-1.4,10.06,10.06,0,0,0,3.85-4.06,12.81,12.81,0,0,0,1.43-6.2A12.64,12.64,0,0,0,411.68,301.67Z"
        transform="translate(-126.99 -242.83)"/>
    <path
        d="M431.8,322.84a10.89,10.89,0,0,1-4.52-3.43,9.21,9.21,0,0,1-1.83-5.06h5.37a5.3,5.3,0,0,0,2.2,3.83,8.39,8.39,0,0,0,5.17,1.49,7.51,7.51,0,0,0,4.69-1.32,4,4,0,0,0,1.71-3.31,3.28,3.28,0,0,0-1.83-3.06,25.91,25.91,0,0,0-5.65-2,41.82,41.82,0,0,1-5.69-1.86,10.12,10.12,0,0,1-3.77-2.79,7.94,7.94,0,0,1-.14-9.29,9.65,9.65,0,0,1,4.06-3.17,14.6,14.6,0,0,1,6-1.17,12.8,12.8,0,0,1,8.39,2.63,9.43,9.43,0,0,1,3.43,7.2h-5.2a5.37,5.37,0,0,0-2-3.95,7.35,7.35,0,0,0-4.83-1.48,7.43,7.43,0,0,0-4.45,1.2,3.7,3.7,0,0,0-1.66,3.14,3.41,3.41,0,0,0,1,2.54,7.36,7.36,0,0,0,2.51,1.6q1.51.6,4.2,1.35a43.87,43.87,0,0,1,5.49,1.79,9.72,9.72,0,0,1,3.63,2.66,7.1,7.1,0,0,1,1.57,4.63,8,8,0,0,1-1.43,4.63,9.52,9.52,0,0,1-4,3.22,14.23,14.23,0,0,1-6,1.18A16.13,16.13,0,0,1,431.8,322.84Z"
        transform="translate(-126.99 -242.83)"/>
    <path
        d="M463.33,296.53V315a4.42,4.42,0,0,0,1,3.23,4.78,4.78,0,0,0,3.37.94h3.83v4.4h-4.68c-2.9,0-5.07-.66-6.52-2s-2.17-3.52-2.17-6.57V296.53h-4.05v-4.29h4.05v-7.88h5.2v7.88h8.17v4.29Z"
        transform="translate(-126.99 -242.83)"/>
    <path
        d="M506.18,309.84h-25a9.84,9.84,0,0,0,10.17,9.83A9.65,9.65,0,0,0,497,318.1a8.33,8.33,0,0,0,3.18-4.2h5.59a13.43,13.43,0,0,1-5,7.34,15.23,15.23,0,0,1-9.37,2.83,15.85,15.85,0,0,1-8-2,14.2,14.2,0,0,1-5.52-5.69,17.63,17.63,0,0,1-2-8.54,17.81,17.81,0,0,1,2-8.51,13.57,13.57,0,0,1,5.45-5.63,16.32,16.32,0,0,1,8.09-2,15.74,15.74,0,0,1,7.88,1.94A13.51,13.51,0,0,1,504.5,299a15.87,15.87,0,0,1,1.85,7.69A28.94,28.94,0,0,1,506.18,309.84Zm-6.51-9.34a8.57,8.57,0,0,0-3.57-3.26,11.19,11.19,0,0,0-5-1.11,9.64,9.64,0,0,0-6.71,2.51,10.26,10.26,0,0,0-3.18,7H501A9.64,9.64,0,0,0,499.67,300.5Z"
        transform="translate(-126.99 -242.83)"/>
    <path
        d="M522.32,293.16a12.11,12.11,0,0,1,6.2-1.49V297h-1.37q-8.74,0-8.74,9.49v17h-5.2V292.24h5.2v5.09A10,10,0,0,1,522.32,293.16Z"
        transform="translate(-126.99 -242.83)"/>
    <path
        d="M540.86,296.53V315a4.38,4.38,0,0,0,1,3.23,4.78,4.78,0,0,0,3.37.94H549v4.4h-4.68c-2.9,0-5.07-.66-6.52-2s-2.17-3.52-2.17-6.57V296.53h-4v-4.29h4v-7.88h5.2v7.88H549v4.29Z"
        transform="translate(-126.99 -242.83)"/>
    <path
        d="M561,322.07a14.26,14.26,0,0,1-5.6-5.69,17.42,17.42,0,0,1-2-8.54,16.9,16.9,0,0,1,2.09-8.48,14.32,14.32,0,0,1,5.68-5.66,17.45,17.45,0,0,1,16.11,0,14.39,14.39,0,0,1,5.69,5.63,16.87,16.87,0,0,1,2.08,8.51,16.64,16.64,0,0,1-2.14,8.54,14.89,14.89,0,0,1-5.8,5.69,16.63,16.63,0,0,1-8.11,2A16.07,16.07,0,0,1,561,322.07Zm13.23-3.89a10,10,0,0,0,4-3.94,12.63,12.63,0,0,0,1.51-6.4,12.83,12.83,0,0,0-1.48-6.4,9.76,9.76,0,0,0-3.89-3.91,11.19,11.19,0,0,0-10.43,0,9.44,9.44,0,0,0-3.8,3.91,13.27,13.27,0,0,0-1.42,6.4,13.53,13.53,0,0,0,1.4,6.46,9.31,9.31,0,0,0,3.74,3.91A10.46,10.46,0,0,0,569,319.5,11,11,0,0,0,574.23,318.18Z"
        transform="translate(-126.99 -242.83)"/>
    <path
        d="M597.57,322.07a14.26,14.26,0,0,1-5.6-5.69,17.31,17.31,0,0,1-2-8.54,16.89,16.89,0,0,1,2.08-8.48,14.34,14.34,0,0,1,5.69-5.66,17.45,17.45,0,0,1,16.11,0,14.37,14.37,0,0,1,5.68,5.63,18.24,18.24,0,0,1,0,17.05,14.89,14.89,0,0,1-5.8,5.69,16.66,16.66,0,0,1-8.11,2A16,16,0,0,1,597.57,322.07Zm13.22-3.89a10,10,0,0,0,4-3.94,12.63,12.63,0,0,0,1.52-6.4,12.83,12.83,0,0,0-1.49-6.4,9.67,9.67,0,0,0-3.88-3.91,11.19,11.19,0,0,0-10.43,0,9.38,9.38,0,0,0-3.8,3.91,13.27,13.27,0,0,0-1.43,6.4,13.65,13.65,0,0,0,1.4,6.46,9.37,9.37,0,0,0,3.74,3.91,10.53,10.53,0,0,0,5.15,1.29A10.94,10.94,0,0,0,610.79,318.18Z"
        transform="translate(-126.99 -242.83)"/>
    <path d="M633.65,281.27v42.28h-5.2V281.27Z" transform="translate(-126.99 -242.83)"/>
    <path
        d="M647.13,322.84a10.89,10.89,0,0,1-4.52-3.43,9.12,9.12,0,0,1-1.82-5.06h5.37a5.23,5.23,0,0,0,2.2,3.83,8.35,8.35,0,0,0,5.17,1.49,7.48,7.48,0,0,0,4.68-1.32,4,4,0,0,0,1.72-3.31A3.28,3.28,0,0,0,658.1,312a26.23,26.23,0,0,0-5.66-2,41.17,41.17,0,0,1-5.68-1.86,10,10,0,0,1-3.77-2.79,7.31,7.31,0,0,1-1.58-4.89,7.41,7.41,0,0,1,1.43-4.4,9.71,9.71,0,0,1,4.06-3.17,14.6,14.6,0,0,1,6-1.17,12.85,12.85,0,0,1,8.4,2.63,9.5,9.5,0,0,1,3.43,7.2h-5.2a5.41,5.41,0,0,0-2-3.95,7.31,7.31,0,0,0-4.82-1.48,7.44,7.44,0,0,0-4.46,1.2,3.72,3.72,0,0,0-1.66,3.14,3.45,3.45,0,0,0,1,2.54,7.31,7.31,0,0,0,2.52,1.6q1.51.6,4.2,1.35a44.21,44.21,0,0,1,5.48,1.79,9.72,9.72,0,0,1,3.63,2.66A7.1,7.1,0,0,1,665,315a8,8,0,0,1-1.43,4.63,9.46,9.46,0,0,1-4,3.22,14.23,14.23,0,0,1-6,1.18A16.16,16.16,0,0,1,647.13,322.84Z"
        transform="translate(-126.99 -242.83)"/>
    <path class="cls-1"
          d="M190.52,297.73a6.1,6.1,0,0,0-6.38,6.07,6.25,6.25,0,0,0,6.5,6,6.43,6.43,0,0,0,6.5-6.24C197.11,300.25,194.24,297.72,190.52,297.73Z"
          transform="translate(-126.99 -242.83)"/>
    <path class="cls-1"
          d="M180,319.86a5.81,5.81,0,0,0,6-5.73,6.16,6.16,0,0,0-6.35-6.1,5.75,5.75,0,0,0-5.88,5.82A6.07,6.07,0,0,0,180,319.86Z"
          transform="translate(-126.99 -242.83)"/>
    <path class="cls-1"
          d="M179.64,287.32a6.08,6.08,0,0,0-6.29,6,5.53,5.53,0,0,0,5.82,5.49,6.23,6.23,0,0,0,6.28-6C185.46,289.57,183,287.31,179.64,287.32Z"
          transform="translate(-126.99 -242.83)"/>
    <path class="cls-1"
          d="M163.23,303.13a5.66,5.66,0,0,0,5.73,5.95,6,6,0,0,0,5.78-6.05,5.67,5.67,0,0,0-5.64-5.89A5.75,5.75,0,0,0,163.23,303.13Z"
          transform="translate(-126.99 -242.83)"/>
    <path class="cls-1"
          d="M169.85,318.3a4.75,4.75,0,0,0-5.06,4.91,6.42,6.42,0,0,0,6.18,6.26,5,5,0,0,0,5-5.05A6,6,0,0,0,169.85,318.3Z"
          transform="translate(-126.99 -242.83)"/>
    <path class="cls-1"
          d="M159.25,307.44c-2.62,0-4.58,2.15-4.76,5.18a6.09,6.09,0,0,0,.17,1.75c.67,3.13,3.34,5.25,6.05,4.84a5.42,5.42,0,0,0,4.25-6C164.64,309.81,162.25,307.4,159.25,307.44Z"
          transform="translate(-126.99 -242.83)"/>
    <path class="cls-1"
          d="M160.26,286.73a5.36,5.36,0,0,0-5,3.3,5.83,5.83,0,0,0,.19,6.27,4.38,4.38,0,0,0,5.22,1.55,6.58,6.58,0,0,0,3.81-8.19A4.15,4.15,0,0,0,160.26,286.73Z"
          transform="translate(-126.99 -242.83)"/>
    <path class="cls-1"
          d="M170.72,277.43a6.43,6.43,0,0,0-6.28,6.28,4.58,4.58,0,0,0,4.75,4.55,6.4,6.4,0,0,0,6.17-6.07A4.49,4.49,0,0,0,170.72,277.43Z"
          transform="translate(-126.99 -242.83)"/>
    <path class="cls-1"
          d="M145.89,302.73c.07.43.11.87.19,1.3.51,2.7,2.08,4.37,4.16,4.45s3.88-1.5,4.65-4a7,7,0,0,0-.64-6,3.92,3.92,0,0,0-6.66-.39,23.52,23.52,0,0,0-2,4.44Z"
          transform="translate(-126.99 -242.83)"/>
    <path class="cls-1"
          d="M161.84,328c-2.54,0-4.05,1.65-3.86,4.25a6.82,6.82,0,0,0,5.11,6,3.76,3.76,0,0,0,4.88-3.62A6.47,6.47,0,0,0,161.84,328Z"
          transform="translate(-126.99 -242.83)"/>
    <path class="cls-1"
          d="M147.87,322.48a6.85,6.85,0,0,0,3.25,5.64c2.51,1.58,5,.53,5.79-2.33a7.2,7.2,0,0,0-2.95-7.42,4,4,0,0,0-4.17-.3C148.22,318.89,147.87,320.43,147.87,322.48Z"
          transform="translate(-126.99 -242.83)"/>
    <path class="cls-1"
          d="M148.31,283.56c0,3.44,2.64,5.05,5.35,3.49a7.11,7.11,0,0,0,3.72-6.7c-.07-2.91-2.41-4.32-5-3A7.52,7.52,0,0,0,148.31,283.56Z"
          transform="translate(-126.99 -242.83)"/>
    <path class="cls-1"
          d="M147.45,313.75c-.11-2.47-.58-4.4-2.09-5.9a3,3,0,0,0-5.13.8,8.21,8.21,0,0,0,.82,8.34,3.43,3.43,0,0,0,3.26,1.6,3.38,3.38,0,0,0,2.63-2.52A18.44,18.44,0,0,0,147.45,313.75Z"
          transform="translate(-126.99 -242.83)"/>
    <path class="cls-1"
          d="M158.05,275a3.36,3.36,0,0,0,4.27,3.36,7.07,7.07,0,0,0,5.36-6.23c.13-2.74-1.85-4.19-4.71-3.46A7.4,7.4,0,0,0,158.05,275Z"
          transform="translate(-126.99 -242.83)"/>
    <path class="cls-1"
          d="M140,293.05c0,.5,0,.85.06,1.18.25,1.41.74,2.71,2.23,3.18a3.26,3.26,0,0,0,3.5-1.32,8.06,8.06,0,0,0,1.89-7.5c-.6-2.57-3.1-3.32-5.09-1.54A8,8,0,0,0,140,293.05Z"
          transform="translate(-126.99 -242.83)"/>
    <path class="cls-1"
          d="M151.9,335.2c-.41-3.3-1.39-5.71-3.78-7.13a4.48,4.48,0,0,0-3.29-.35c-1.23.41-1.33,1.85-1.18,3a8.07,8.07,0,0,0,3.81,6.3,3.61,3.61,0,0,0,3,.35C151.23,337,151.58,335.72,151.9,335.2Z"
          transform="translate(-126.99 -242.83)"/>
    <path class="cls-1"
          d="M162.45,343.66a7.52,7.52,0,0,0-5.64-6.73,2.62,2.62,0,0,0-3.23,3.07,8.27,8.27,0,0,0,5.3,6.33C161.06,347,162.45,345.93,162.45,343.66Z"
          transform="translate(-126.99 -242.83)"/>
    <path class="cls-1"
          d="M133.48,302.46a24.87,24.87,0,0,0,1.32,4.24c.76,1.48,2.23,1.5,3.41.29,2-2.11,2.5-7.57.83-10-1-1.49-2.61-1.52-3.79-.07C134.27,298.16,133.79,299.92,133.48,302.46Z"
          transform="translate(-126.99 -242.83)"/>
    <path class="cls-1"
          d="M142.13,324.5a10,10,0,0,0-2.32-6.33c-.76-.88-1.82-1.52-2.82-.92a3.54,3.54,0,0,0-1.38,2.34,9.15,9.15,0,0,0,2.1,7.24c.72.87,1.59,1.73,2.87,1.29s1.44-1.6,1.54-2.75A8.42,8.42,0,0,0,142.13,324.5Z"
          transform="translate(-126.99 -242.83)"/>
    <path class="cls-1"
          d="M152.48,268.21a3.91,3.91,0,0,0-3.89.8,9.06,9.06,0,0,0-3.44,5.47,4,4,0,0,0,.72,2.92c.79.92,2,.4,3-.21a8.69,8.69,0,0,0,4.16-7A6,6,0,0,0,152.48,268.21Z"
          transform="translate(-126.99 -242.83)"/>
    <path class="cls-1"
          d="M161.15,260.36c-2.9.06-6.67,4-6.6,6.8a2,2,0,0,0,2.26,2.09c3-.11,6.58-4.18,6.29-7.21C163,260.78,162.29,260.22,161.15,260.36Z"
          transform="translate(-126.99 -242.83)"/>
    <path class="cls-1"
          d="M143.71,278.3c-.2-.35-.48-1.49-1.05-1.67a3.09,3.09,0,0,0-2.49.63,9.68,9.68,0,0,0-3.31,7.27,2,2,0,0,0,3.53,1.6C142.56,284.22,143.48,281.67,143.71,278.3Z"
          transform="translate(-126.99 -242.83)"/>
    <path class="cls-1"
          d="M131.29,306.33c-2.41,2.75-1.42,10.31,1.85,11.84a7.86,7.86,0,0,0,1.16-1.94,13.07,13.07,0,0,0-.77-8.58C133.12,306.72,132.52,305.93,131.29,306.33Z"
          transform="translate(-126.99 -242.83)"/>
    <path class="cls-1"
          d="M152.05,345.4a7.29,7.29,0,0,0-.19,1.89c.41,2.47,3.81,5.93,6.26,6.46,1.39.3,2-.27,1.94-1.69-.19-2.42-3.42-6.18-5.78-6.64A13.24,13.24,0,0,0,152.05,345.4Z"
          transform="translate(-126.99 -242.83)"/>
    <path class="cls-1"
          d="M142.08,336.32a12.63,12.63,0,0,0,0,2.38,10.63,10.63,0,0,0,4.88,6.85,2.35,2.35,0,0,0,2,.18c.39-.22.59-1.22.49-1.81a10.1,10.1,0,0,0-4.58-7A9.56,9.56,0,0,0,142.08,336.32Z"
          transform="translate(-126.99 -242.83)"/>
    <path class="cls-1"
          d="M131.79,297c3.25-1.23,5.16-8.12,3.2-11.57-.59.29-1.44.44-1.8.93a12.28,12.28,0,0,0-2.22,9A5.85,5.85,0,0,0,131.79,297Z"
          transform="translate(-126.99 -242.83)"/>
    <path class="cls-1"
          d="M139.8,337.18c.84-3.25-.58-5.85-2.16-8.37-.67-1.07-1.42-2.31-3.06-1.89C133.09,329.9,136.55,337,139.8,337.18Z"
          transform="translate(-126.99 -242.83)"/>
    <path class="cls-1"
          d="M152.22,260.05c-1.91-.48-3.07.85-4.19,2-1.77,1.77-3.54,3.62-3.34,6.42C147.7,269.15,152.79,263.37,152.22,260.05Z"
          transform="translate(-126.99 -242.83)"/>
    <path class="cls-1"
          d="M154.34,260.91c3.42.29,8.28-4.46,7.76-7.6-3-.05-4.9,2-6.7,3.95C154.52,258.24,153.62,259.37,154.34,260.91Z"
          transform="translate(-126.99 -242.83)"/>
    <path class="cls-1" d="M136.94,277.12c2.72-.09,6.95-6.92,6-9.56C140.27,267.53,136.15,274,136.94,277.12Z"
          transform="translate(-126.99 -242.83)"/>
    <path class="cls-1" d="M152.78,352.94c0,2.64,5,7.09,8,7.17C161.38,357.6,155.71,352.42,152.78,352.94Z"
          transform="translate(-126.99 -242.83)"/>
    <path class="cls-1" d="M150.47,353.29c.46-2.69-4.66-8.61-7.21-8.34C142.83,347.47,147.73,353.13,150.47,353.29Z"
          transform="translate(-126.99 -242.83)"/>
    <path class="cls-1" d="M128.55,307.13c1.88-1.71,2.57-9.71,1-11.73C127.56,296.28,126.8,305.14,128.55,307.13Z"
          transform="translate(-126.99 -242.83)"/>
    <path class="cls-1" d="M132.35,327.6c1.07-2.91-.85-10.05-2.9-11.1C128,318.44,130.14,326.6,132.35,327.6Z"
          transform="translate(-126.99 -242.83)"/>
    <path class="cls-1" d="M131,286.37c2-.85,4.88-7.59,4.5-10.33C133.67,276.38,130.61,283.31,131,286.37Z"
          transform="translate(-126.99 -242.83)"/>
    <path class="cls-1"
          d="M162.78,364.63c-.13,1,5.08,3.79,8.95,4.54-1.16-.58-2.31-1.17-3.47-1.74s-2.37-1.16-3.55-1.73c.7-1.29-6.06-6.33-8.71-6.34C157.79,361.87,160.32,363.12,162.78,364.63Z"
          transform="translate(-126.99 -242.83)"/>
    <path class="cls-1" d="M135.41,336c.13,2.88,3.88,8.72,5.94,9.41C141.66,343.09,137.54,336.47,135.41,336Z"
          transform="translate(-126.99 -242.83)"/>
    <path class="cls-1" d="M156.61,253.73c2.12.18,7.67-3.83,8.57-6.19C162.6,247.42,156.84,251.58,156.61,253.73Z"
          transform="translate(-126.99 -242.83)"/>
    <path class="cls-1" d="M147.3,260.3c1.92.21,7.41-4.66,8.07-7.16C153.23,253,147.88,257.75,147.3,260.3Z"
          transform="translate(-126.99 -242.83)"/>
    <path class="cls-1" d="M146.32,259.53a25.13,25.13,0,0,0-7.09,8.49C141.15,267.66,145.87,262,146.32,259.53Z"
          transform="translate(-126.99 -242.83)"/>
    <path class="cls-1" d="M155,359.72c-1.43-2.47-6.42-6.89-8.12-7.24C147.4,354.36,153.52,359.88,155,359.72Z"
          transform="translate(-126.99 -242.83)"/>
    <path class="cls-1" d="M162.17,248l8.91-4.7-.26-.51c-3.09,1.34-6.25,2.53-8.92,4.7Z"
          transform="translate(-126.99 -242.83)"/>
    <path class="cls-1" d="M160.92,247.2l-8.32,5.72.4.59,8.3-5.75Z" transform="translate(-126.99 -242.83)"/>
    <path class="cls-1" d="M134.63,336l-3.93-9.57-.53.21,3.9,9.59Z" transform="translate(-126.99 -242.83)"/>
    <path class="cls-1" d="M127,306.59l.84,10.25.61,0q-.48-5.13-1-10.24Z" transform="translate(-126.99 -242.83)"/>
    <path class="cls-1" d="M128.29,295.41c.72-3.1,1.43-6.21,2.15-9.31L130,286l-2.17,9.3Z"
          transform="translate(-126.99 -242.83)"/>
    <path class="cls-1" d="M139.89,345.69,145,352l.39-.31c-1.7-2.09-3.39-4.19-5.09-6.29Z"
          transform="translate(-126.99 -242.83)"/>
</svg>
